<mxfile host="65bd71144e">
    <diagram id="gMTf9EaZqgnrItSle7EK" name="Page-1">
        <mxGraphModel dx="1563" dy="1860" grid="1" gridSize="10" guides="1" tooltips="1" connect="1" arrows="1" fold="1" page="1" pageScale="1" pageWidth="850" pageHeight="1100" math="0" shadow="0">
            <root>
                <mxCell id="0"/>
                <mxCell id="1" parent="0"/>
                <mxCell id="153" value="" style="whiteSpace=wrap;html=1;" parent="1" vertex="1">
                    <mxGeometry x="1080" y="40" width="710" height="680" as="geometry"/>
                </mxCell>
                <mxCell id="4" value="" style="whiteSpace=wrap;html=1;" parent="1" vertex="1">
                    <mxGeometry x="120" y="80" width="670" height="600" as="geometry"/>
                </mxCell>
                <mxCell id="3" value="iot_buf&lt;br&gt;[127:0]" style="whiteSpace=wrap;html=1;direction=south;" parent="1" vertex="1">
                    <mxGeometry x="190" y="120" width="40" height="520" as="geometry"/>
                </mxCell>
                <mxCell id="17" value="sub-key&amp;nbsp;&lt;br&gt;generator" style="whiteSpace=wrap;html=1;" parent="1" vertex="1">
                    <mxGeometry x="305" y="390" width="120" height="250" as="geometry"/>
                </mxCell>
                <mxCell id="19" value="kn[47:0]" style="edgeStyle=none;orthogonalLoop=1;jettySize=auto;html=1;exitX=1;exitY=0.5;exitDx=0;exitDy=0;entryX=-0.008;entryY=0.721;entryDx=0;entryDy=0;entryPerimeter=0;" parent="1" source="17" target="20" edge="1">
                    <mxGeometry width="80" relative="1" as="geometry">
                        <mxPoint x="440" y="514.52" as="sourcePoint"/>
                        <mxPoint x="520" y="514.52" as="targetPoint"/>
                        <Array as="points">
                            <mxPoint x="490" y="515"/>
                            <mxPoint x="490" y="380"/>
                            <mxPoint x="250" y="380"/>
                            <mxPoint x="250" y="350"/>
                            <mxPoint x="250" y="300"/>
                            <mxPoint x="270" y="300"/>
                        </Array>
                    </mxGeometry>
                </mxCell>
                <mxCell id="20" value="encryption" style="whiteSpace=wrap;html=1;" parent="1" vertex="1">
                    <mxGeometry x="305" y="120" width="120" height="250" as="geometry"/>
                </mxCell>
                <mxCell id="21" value="" style="edgeStyle=none;orthogonalLoop=1;jettySize=auto;html=1;entryX=0;entryY=0.5;entryDx=0;entryDy=0;exitX=0.24;exitY=-0.036;exitDx=0;exitDy=0;exitPerimeter=0;" parent="1" source="3" target="20" edge="1">
                    <mxGeometry width="80" relative="1" as="geometry">
                        <mxPoint x="230" y="250" as="sourcePoint"/>
                        <mxPoint x="269.34000000000015" y="245.32000000000005" as="targetPoint"/>
                        <Array as="points"/>
                    </mxGeometry>
                </mxCell>
                <mxCell id="22" value="" style="edgeStyle=none;orthogonalLoop=1;jettySize=auto;html=1;entryX=0;entryY=0.5;entryDx=0;entryDy=0;exitX=0.5;exitY=0;exitDx=0;exitDy=0;" parent="1" edge="1">
                    <mxGeometry width="80" relative="1" as="geometry">
                        <mxPoint x="230" y="514.52" as="sourcePoint"/>
                        <mxPoint x="305" y="514.52" as="targetPoint"/>
                        <Array as="points"/>
                    </mxGeometry>
                </mxCell>
                <mxCell id="30" value="" style="endArrow=none;html=1;" parent="1" edge="1">
                    <mxGeometry width="50" height="50" relative="1" as="geometry">
                        <mxPoint x="120" y="760" as="sourcePoint"/>
                        <mxPoint x="305" y="640" as="targetPoint"/>
                    </mxGeometry>
                </mxCell>
                <mxCell id="31" value="" style="endArrow=none;html=1;entryX=1;entryY=1;entryDx=0;entryDy=0;" parent="1" target="17" edge="1">
                    <mxGeometry width="50" height="50" relative="1" as="geometry">
                        <mxPoint x="600" y="760" as="sourcePoint"/>
                        <mxPoint x="315" y="650" as="targetPoint"/>
                    </mxGeometry>
                </mxCell>
                <mxCell id="32" value="" style="whiteSpace=wrap;html=1;" parent="1" vertex="1">
                    <mxGeometry x="70" y="760" width="530" height="370" as="geometry"/>
                </mxCell>
                <mxCell id="33" value="main_key[63:0]" style="edgeStyle=none;orthogonalLoop=1;jettySize=auto;html=1;entryX=0;entryY=0.5;entryDx=0;entryDy=0;" parent="1" target="35" edge="1">
                    <mxGeometry width="80" relative="1" as="geometry">
                        <mxPoint y="945" as="sourcePoint"/>
                        <mxPoint x="160" y="944.44" as="targetPoint"/>
                        <Array as="points"/>
                    </mxGeometry>
                </mxCell>
                <mxCell id="35" value="PC1" style="whiteSpace=wrap;html=1;" parent="1" vertex="1">
                    <mxGeometry x="160" y="855" width="30" height="180" as="geometry"/>
                </mxCell>
                <mxCell id="36" value="ckey[55:0]" style="edgeStyle=none;orthogonalLoop=1;jettySize=auto;html=1;exitX=1.043;exitY=0.45;exitDx=0;exitDy=0;exitPerimeter=0;" parent="1" source="35" edge="1">
                    <mxGeometry width="80" relative="1" as="geometry">
                        <mxPoint x="190" y="944.44" as="sourcePoint"/>
                        <mxPoint x="270" y="936" as="targetPoint"/>
                        <Array as="points"/>
                    </mxGeometry>
                </mxCell>
                <mxCell id="37" value="Circular Shifter" style="whiteSpace=wrap;html=1;" parent="1" vertex="1">
                    <mxGeometry x="320" y="855" width="60" height="180" as="geometry"/>
                </mxCell>
                <mxCell id="40" value="shifted_ckey[55:0]" style="edgeStyle=none;orthogonalLoop=1;jettySize=auto;html=1;entryX=0;entryY=0.5;entryDx=0;entryDy=0;" parent="1" target="41" edge="1">
                    <mxGeometry width="80" relative="1" as="geometry">
                        <mxPoint x="380" y="945" as="sourcePoint"/>
                        <mxPoint x="420" y="942.68" as="targetPoint"/>
                        <Array as="points"/>
                    </mxGeometry>
                </mxCell>
                <mxCell id="41" value="PC2" style="whiteSpace=wrap;html=1;" parent="1" vertex="1">
                    <mxGeometry x="530" y="855" width="30" height="180" as="geometry"/>
                </mxCell>
                <mxCell id="42" value="kn[47:0]" style="edgeStyle=none;orthogonalLoop=1;jettySize=auto;html=1;exitX=1;exitY=0.5;exitDx=0;exitDy=0;startArrow=none;" parent="1" edge="1">
                    <mxGeometry width="80" relative="1" as="geometry">
                        <mxPoint x="560" y="945" as="sourcePoint"/>
                        <mxPoint x="640" y="945" as="targetPoint"/>
                        <Array as="points"/>
                    </mxGeometry>
                </mxCell>
                <mxCell id="47" value="ckey_r[55:0]" style="whiteSpace=wrap;html=1;" parent="1" vertex="1">
                    <mxGeometry x="280" y="1080" width="180" height="30" as="geometry"/>
                </mxCell>
                <mxCell id="48" value="" style="edgeStyle=none;orthogonalLoop=1;jettySize=auto;html=1;" parent="1" edge="1">
                    <mxGeometry width="80" relative="1" as="geometry">
                        <mxPoint x="515" y="945" as="sourcePoint"/>
                        <mxPoint x="460" y="1095" as="targetPoint"/>
                        <Array as="points">
                            <mxPoint x="515" y="1095"/>
                        </Array>
                    </mxGeometry>
                </mxCell>
                <mxCell id="49" value="" style="ellipse;whiteSpace=wrap;html=1;fillColor=#a20025;fontColor=#ffffff;strokeColor=#6F0000;" parent="1" vertex="1">
                    <mxGeometry x="510" y="940" width="10" height="10" as="geometry"/>
                </mxCell>
                <mxCell id="50" value="" style="edgeStyle=none;orthogonalLoop=1;jettySize=auto;html=1;exitX=0;exitY=0.5;exitDx=0;exitDy=0;entryX=0.75;entryY=1;entryDx=0;entryDy=0;" parent="1" source="47" target="51" edge="1">
                    <mxGeometry width="80" relative="1" as="geometry">
                        <mxPoint x="270" y="1110" as="sourcePoint"/>
                        <mxPoint x="350" y="1110" as="targetPoint"/>
                        <Array as="points">
                            <mxPoint x="220" y="1095"/>
                            <mxPoint x="220" y="1030"/>
                            <mxPoint x="220" y="958"/>
                        </Array>
                    </mxGeometry>
                </mxCell>
                <mxCell id="51" value="" style="shape=trapezoid;perimeter=trapezoidPerimeter;whiteSpace=wrap;html=1;fixedSize=1;direction=south;size=10;" parent="1" vertex="1">
                    <mxGeometry x="268" y="920" width="10" height="50" as="geometry"/>
                </mxCell>
                <mxCell id="53" value="" style="edgeStyle=none;orthogonalLoop=1;jettySize=auto;html=1;exitX=0.5;exitY=0;exitDx=0;exitDy=0;entryX=0;entryY=0.5;entryDx=0;entryDy=0;" parent="1" source="51" target="37" edge="1">
                    <mxGeometry width="80" relative="1" as="geometry">
                        <mxPoint x="229" y="980" as="sourcePoint"/>
                        <mxPoint x="279" y="957" as="targetPoint"/>
                        <Array as="points"/>
                    </mxGeometry>
                </mxCell>
                <mxCell id="54" value="" style="edgeStyle=none;orthogonalLoop=1;jettySize=auto;html=1;entryX=0;entryY=0.25;entryDx=0;entryDy=0;" parent="1" target="51" edge="1">
                    <mxGeometry width="80" relative="1" as="geometry">
                        <mxPoint x="275" y="738" as="sourcePoint"/>
                        <mxPoint x="338" y="858" as="targetPoint"/>
                        <Array as="points"/>
                    </mxGeometry>
                </mxCell>
                <mxCell id="55" value="0" style="text;strokeColor=none;align=center;fillColor=none;html=1;verticalAlign=middle;whiteSpace=wrap;rounded=0;" parent="1" vertex="1">
                    <mxGeometry x="263" y="920" width="20" height="30" as="geometry"/>
                </mxCell>
                <mxCell id="56" value="1" style="text;strokeColor=none;align=center;fillColor=none;html=1;verticalAlign=middle;whiteSpace=wrap;rounded=0;" parent="1" vertex="1">
                    <mxGeometry x="263" y="942" width="20" height="30" as="geometry"/>
                </mxCell>
                <mxCell id="57" value="" style="edgeStyle=none;orthogonalLoop=1;jettySize=auto;html=1;entryX=0.613;entryY=1.088;entryDx=0;entryDy=0;entryPerimeter=0;" parent="1" edge="1">
                    <mxGeometry width="80" relative="1" as="geometry">
                        <mxPoint x="330" y="1150" as="sourcePoint"/>
                        <mxPoint x="330.3399999999999" y="1111" as="targetPoint"/>
                        <Array as="points"/>
                    </mxGeometry>
                </mxCell>
                <mxCell id="58" value="wen_ckey" style="text;strokeColor=none;align=center;fillColor=none;html=1;verticalAlign=middle;whiteSpace=wrap;rounded=0;" parent="1" vertex="1">
                    <mxGeometry x="305" y="1148" width="60" height="30" as="geometry"/>
                </mxCell>
                <mxCell id="66" value="ciphertext[63:0]" style="edgeStyle=none;orthogonalLoop=1;jettySize=auto;html=1;entryX=0.612;entryY=0.274;entryDx=0;entryDy=0;exitX=0.5;exitY=0;exitDx=0;exitDy=0;entryPerimeter=0;" parent="1" target="4" edge="1">
                    <mxGeometry width="80" relative="1" as="geometry">
                        <mxPoint x="425" y="244.57" as="sourcePoint"/>
                        <mxPoint x="500" y="244.57" as="targetPoint"/>
                        <Array as="points"/>
                    </mxGeometry>
                </mxCell>
                <mxCell id="67" value="key_in_sel" style="text;strokeColor=none;align=center;fillColor=none;html=1;verticalAlign=middle;whiteSpace=wrap;rounded=0;" parent="1" vertex="1">
                    <mxGeometry x="245" y="710" width="60" height="30" as="geometry"/>
                </mxCell>
                <mxCell id="69" value="" style="endArrow=none;html=1;entryX=0;entryY=1;entryDx=0;entryDy=0;" parent="1" target="71" edge="1">
                    <mxGeometry width="50" height="50" relative="1" as="geometry">
                        <mxPoint x="305" y="120" as="sourcePoint"/>
                        <mxPoint x="115" y="-60" as="targetPoint"/>
                    </mxGeometry>
                </mxCell>
                <mxCell id="70" value="" style="endArrow=none;html=1;exitX=1;exitY=0;exitDx=0;exitDy=0;entryX=1;entryY=1;entryDx=0;entryDy=0;" parent="1" source="20" target="71" edge="1">
                    <mxGeometry width="50" height="50" relative="1" as="geometry">
                        <mxPoint x="615" y="100" as="sourcePoint"/>
                        <mxPoint x="580" y="-60" as="targetPoint"/>
                    </mxGeometry>
                </mxCell>
                <mxCell id="71" value="" style="whiteSpace=wrap;html=1;" parent="1" vertex="1">
                    <mxGeometry x="45" y="-420" width="650" height="360" as="geometry"/>
                </mxCell>
                <mxCell id="72" value="plaintext [63:0]" style="edgeStyle=none;orthogonalLoop=1;jettySize=auto;html=1;entryX=0.075;entryY=0.5;entryDx=0;entryDy=0;entryPerimeter=0;" parent="1" edge="1">
                    <mxGeometry width="80" relative="1" as="geometry">
                        <mxPoint x="-110" y="-278.42" as="sourcePoint"/>
                        <mxPoint x="54.875" y="-277.92" as="targetPoint"/>
                        <Array as="points"/>
                    </mxGeometry>
                </mxCell>
                <mxCell id="73" value="" style="shape=trapezoid;perimeter=trapezoidPerimeter;whiteSpace=wrap;html=1;fixedSize=1;direction=south;size=10;" parent="1" vertex="1">
                    <mxGeometry x="155" y="-300" width="20" height="60" as="geometry"/>
                </mxCell>
                <mxCell id="74" value="" style="edgeStyle=none;orthogonalLoop=1;jettySize=auto;html=1;" parent="1" edge="1">
                    <mxGeometry width="80" relative="1" as="geometry">
                        <mxPoint x="175" y="-270.5" as="sourcePoint"/>
                        <mxPoint x="220" y="-270" as="targetPoint"/>
                        <Array as="points"/>
                    </mxGeometry>
                </mxCell>
                <mxCell id="75" value="" style="endArrow=none;html=1;entryX=0.677;entryY=0.222;entryDx=0;entryDy=0;entryPerimeter=0;" parent="1" edge="1">
                    <mxGeometry width="50" height="50" relative="1" as="geometry">
                        <mxPoint x="220" y="-240" as="sourcePoint"/>
                        <mxPoint x="219.80500000000006" y="-300.0799999999999" as="targetPoint"/>
                    </mxGeometry>
                </mxCell>
                <mxCell id="76" value="R0" style="edgeStyle=none;orthogonalLoop=1;jettySize=auto;html=1;entryX=-0.002;entryY=0.346;entryDx=0;entryDy=0;entryPerimeter=0;" parent="1" target="82" edge="1">
                    <mxGeometry width="80" relative="1" as="geometry">
                        <mxPoint x="220" y="-300" as="sourcePoint"/>
                        <mxPoint x="250" y="-300" as="targetPoint"/>
                        <Array as="points"/>
                    </mxGeometry>
                </mxCell>
                <mxCell id="77" value="L0" style="edgeStyle=none;orthogonalLoop=1;jettySize=auto;html=1;entryX=0;entryY=0.5;entryDx=0;entryDy=0;" parent="1" target="83" edge="1">
                    <mxGeometry width="80" relative="1" as="geometry">
                        <mxPoint x="220" y="-240" as="sourcePoint"/>
                        <mxPoint x="250" y="-240" as="targetPoint"/>
                        <Array as="points"/>
                    </mxGeometry>
                </mxCell>
                <mxCell id="81" value="K1[47:0]" style="edgeStyle=none;orthogonalLoop=1;jettySize=auto;html=1;" parent="1" edge="1">
                    <mxGeometry width="80" relative="1" as="geometry">
                        <mxPoint x="-110" y="-140" as="sourcePoint"/>
                        <mxPoint x="280" y="-280" as="targetPoint"/>
                        <Array as="points">
                            <mxPoint x="130" y="-140"/>
                            <mxPoint x="240" y="-140"/>
                            <mxPoint x="240" y="-280"/>
                        </Array>
                    </mxGeometry>
                </mxCell>
                <mxCell id="82" value="F" style="whiteSpace=wrap;html=1;" parent="1" vertex="1">
                    <mxGeometry x="280" y="-317" width="30" height="50" as="geometry"/>
                </mxCell>
                <mxCell id="83" value="XOR" style="whiteSpace=wrap;html=1;" parent="1" vertex="1">
                    <mxGeometry x="315" y="-255" width="40" height="30" as="geometry"/>
                </mxCell>
                <mxCell id="84" value="" style="edgeStyle=none;orthogonalLoop=1;jettySize=auto;html=1;entryX=0.5;entryY=0;entryDx=0;entryDy=0;" parent="1" target="83" edge="1">
                    <mxGeometry width="80" relative="1" as="geometry">
                        <mxPoint x="310" y="-292.41999999999996" as="sourcePoint"/>
                        <mxPoint x="390" y="-292.41999999999996" as="targetPoint"/>
                        <Array as="points">
                            <mxPoint x="335" y="-292"/>
                        </Array>
                    </mxGeometry>
                </mxCell>
                <mxCell id="85" value="R0" style="edgeStyle=none;orthogonalLoop=1;jettySize=auto;html=1;entryX=0.011;entryY=0.203;entryDx=0;entryDy=0;entryPerimeter=0;" parent="1" target="88" edge="1">
                    <mxGeometry width="80" relative="1" as="geometry">
                        <mxPoint x="220" y="-300" as="sourcePoint"/>
                        <mxPoint x="390" y="-292.41999999999996" as="targetPoint"/>
                        <Array as="points">
                            <mxPoint x="220" y="-340"/>
                            <mxPoint x="350" y="-340"/>
                            <mxPoint x="350" y="-293"/>
                        </Array>
                    </mxGeometry>
                </mxCell>
                <mxCell id="86" value="L0" style="edgeStyle=none;orthogonalLoop=1;jettySize=auto;html=1;" parent="1" edge="1">
                    <mxGeometry width="80" relative="1" as="geometry">
                        <mxPoint x="355" y="-240" as="sourcePoint"/>
                        <mxPoint x="400" y="-240" as="targetPoint"/>
                        <Array as="points"/>
                    </mxGeometry>
                </mxCell>
                <mxCell id="88" value="x&lt;br&gt;b&lt;br&gt;a&lt;br&gt;r&lt;br&gt;" style="whiteSpace=wrap;html=1;" parent="1" vertex="1">
                    <mxGeometry x="400" y="-310" width="20" height="85" as="geometry"/>
                </mxCell>
                <mxCell id="89" value="" style="edgeStyle=none;orthogonalLoop=1;jettySize=auto;html=1;entryX=0.5;entryY=0;entryDx=0;entryDy=0;" parent="1" target="88" edge="1">
                    <mxGeometry width="80" relative="1" as="geometry">
                        <mxPoint x="410" y="-440" as="sourcePoint"/>
                        <mxPoint x="450" y="-440" as="targetPoint"/>
                        <Array as="points"/>
                    </mxGeometry>
                </mxCell>
                <mxCell id="90" value="en_switch" style="text;strokeColor=none;align=center;fillColor=none;html=1;verticalAlign=middle;whiteSpace=wrap;rounded=0;" parent="1" vertex="1">
                    <mxGeometry x="380" y="-470" width="60" height="30" as="geometry"/>
                </mxCell>
                <mxCell id="93" value="ctext_r" style="whiteSpace=wrap;html=1;" parent="1" vertex="1">
                    <mxGeometry x="315" y="-174" width="40" height="42" as="geometry"/>
                </mxCell>
                <mxCell id="94" value="ctext_r" style="whiteSpace=wrap;html=1;" parent="1" vertex="1">
                    <mxGeometry x="315" y="-132" width="40" height="42" as="geometry"/>
                </mxCell>
                <mxCell id="97" value="wen_ctext" style="edgeStyle=none;orthogonalLoop=1;jettySize=auto;html=1;" parent="1" edge="1">
                    <mxGeometry width="80" relative="1" as="geometry">
                        <mxPoint x="341" y="50" as="sourcePoint"/>
                        <mxPoint x="340.93" y="-90" as="targetPoint"/>
                        <Array as="points"/>
                    </mxGeometry>
                </mxCell>
                <mxCell id="103" value="" style="edgeStyle=none;orthogonalLoop=1;jettySize=auto;html=1;entryX=0;entryY=0.5;entryDx=0;entryDy=0;" parent="1" target="73" edge="1">
                    <mxGeometry width="80" relative="1" as="geometry">
                        <mxPoint x="165" y="-460" as="sourcePoint"/>
                        <mxPoint x="260" y="-460" as="targetPoint"/>
                        <Array as="points"/>
                    </mxGeometry>
                </mxCell>
                <mxCell id="104" value="text_in_sel" style="text;strokeColor=none;align=center;fillColor=none;html=1;verticalAlign=middle;whiteSpace=wrap;rounded=0;" parent="1" vertex="1">
                    <mxGeometry x="135" y="-490" width="60" height="30" as="geometry"/>
                </mxCell>
                <mxCell id="105" value="0" style="text;strokeColor=none;align=center;fillColor=none;html=1;verticalAlign=middle;whiteSpace=wrap;rounded=0;" parent="1" vertex="1">
                    <mxGeometry x="157.5" y="-289" width="15" height="22" as="geometry"/>
                </mxCell>
                <mxCell id="106" value="1" style="text;strokeColor=none;align=center;fillColor=none;html=1;verticalAlign=middle;whiteSpace=wrap;rounded=0;" parent="1" vertex="1">
                    <mxGeometry x="157.5" y="-267" width="15" height="22" as="geometry"/>
                </mxCell>
                <mxCell id="107" value="Initial&lt;br&gt;Permu" style="whiteSpace=wrap;html=1;" parent="1" vertex="1">
                    <mxGeometry x="55" y="-310" width="40" height="60" as="geometry"/>
                </mxCell>
                <mxCell id="108" value="" style="edgeStyle=none;orthogonalLoop=1;jettySize=auto;html=1;entryX=0.38;entryY=0.989;entryDx=0;entryDy=0;entryPerimeter=0;" parent="1" target="73" edge="1">
                    <mxGeometry width="80" relative="1" as="geometry">
                        <mxPoint x="95" y="-278" as="sourcePoint"/>
                        <mxPoint x="135" y="-278" as="targetPoint"/>
                        <Array as="points"/>
                    </mxGeometry>
                </mxCell>
                <mxCell id="111" value="Final&lt;br&gt;Permu" style="whiteSpace=wrap;html=1;" parent="1" vertex="1">
                    <mxGeometry x="570" y="-310.62" width="50" height="86.25" as="geometry"/>
                </mxCell>
                <mxCell id="112" value="ciphertext[63:0]" style="edgeStyle=none;orthogonalLoop=1;jettySize=auto;html=1;exitX=1;exitY=0.5;exitDx=0;exitDy=0;" parent="1" source="111" edge="1">
                    <mxGeometry width="80" relative="1" as="geometry">
                        <mxPoint x="660" y="-267.84" as="sourcePoint"/>
                        <mxPoint x="790" y="-268" as="targetPoint"/>
                        <Array as="points"/>
                    </mxGeometry>
                </mxCell>
                <mxCell id="129" value="crc2" style="whiteSpace=wrap;html=1;" parent="1" vertex="1">
                    <mxGeometry x="1350" y="440" width="50" height="30" as="geometry"/>
                </mxCell>
                <mxCell id="130" value="crc1" style="whiteSpace=wrap;html=1;" parent="1" vertex="1">
                    <mxGeometry x="1400" y="440" width="50" height="30" as="geometry"/>
                </mxCell>
                <mxCell id="131" value="crc0" style="whiteSpace=wrap;html=1;" parent="1" vertex="1">
                    <mxGeometry x="1450" y="440" width="50" height="30" as="geometry"/>
                </mxCell>
                <mxCell id="154" value="" style="endArrow=classic;html=1;entryX=0.25;entryY=0;entryDx=0;entryDy=0;exitX=0.5;exitY=1;exitDx=0;exitDy=0;" parent="1" source="158" target="129" edge="1">
                    <mxGeometry width="50" height="50" relative="1" as="geometry">
                        <mxPoint x="1320" y="20" as="sourcePoint"/>
                        <mxPoint x="1310" y="390" as="targetPoint"/>
                    </mxGeometry>
                </mxCell>
                <mxCell id="155" value="" style="edgeStyle=none;orthogonalLoop=1;jettySize=auto;html=1;entryX=0.25;entryY=0;entryDx=0;entryDy=0;" parent="1" target="130" edge="1">
                    <mxGeometry width="80" relative="1" as="geometry">
                        <mxPoint x="1360" y="230" as="sourcePoint"/>
                        <mxPoint x="1400" y="230" as="targetPoint"/>
                        <Array as="points">
                            <mxPoint x="1413" y="230"/>
                        </Array>
                    </mxGeometry>
                </mxCell>
                <mxCell id="156" value="" style="edgeStyle=none;orthogonalLoop=1;jettySize=auto;html=1;entryX=0.25;entryY=0;entryDx=0;entryDy=0;" parent="1" target="131" edge="1">
                    <mxGeometry width="80" relative="1" as="geometry">
                        <mxPoint x="1400" y="230" as="sourcePoint"/>
                        <mxPoint x="1480" y="230" as="targetPoint"/>
                        <Array as="points">
                            <mxPoint x="1463" y="230"/>
                        </Array>
                    </mxGeometry>
                </mxCell>
                <mxCell id="158" value="rst_remain_r, wen_remain_r" style="text;strokeColor=none;align=center;fillColor=none;html=1;verticalAlign=middle;whiteSpace=wrap;rounded=0;" parent="1" vertex="1">
                    <mxGeometry x="1333" y="-10" width="60" height="30" as="geometry"/>
                </mxCell>
                <mxCell id="159" value="round_ctr" style="whiteSpace=wrap;html=1;" parent="1" vertex="1">
                    <mxGeometry x="1260" y="600" width="120" height="40" as="geometry"/>
                </mxCell>
                <mxCell id="160" value="" style="edgeStyle=none;orthogonalLoop=1;jettySize=auto;html=1;entryX=0.5;entryY=1;entryDx=0;entryDy=0;" parent="1" edge="1">
                    <mxGeometry width="80" relative="1" as="geometry">
                        <mxPoint x="1270" y="830" as="sourcePoint"/>
                        <mxPoint x="1270" y="640" as="targetPoint"/>
                        <Array as="points">
                            <mxPoint x="1270" y="700"/>
                        </Array>
                    </mxGeometry>
                </mxCell>
                <mxCell id="161" value="rst_round_ctr" style="text;strokeColor=none;align=center;fillColor=none;html=1;verticalAlign=middle;whiteSpace=wrap;rounded=0;" parent="1" vertex="1">
                    <mxGeometry x="1240" y="825" width="60" height="30" as="geometry"/>
                </mxCell>
                <mxCell id="162" value="" style="edgeStyle=none;orthogonalLoop=1;jettySize=auto;html=1;entryX=0.25;entryY=1;entryDx=0;entryDy=0;" parent="1" target="159" edge="1">
                    <mxGeometry width="80" relative="1" as="geometry">
                        <mxPoint x="1290" y="760" as="sourcePoint"/>
                        <mxPoint x="1490" y="830" as="targetPoint"/>
                        <Array as="points"/>
                    </mxGeometry>
                </mxCell>
                <mxCell id="163" value="incr_round_ctr" style="text;strokeColor=none;align=center;fillColor=none;html=1;verticalAlign=middle;whiteSpace=wrap;rounded=0;" parent="1" vertex="1">
                    <mxGeometry x="1270" y="760" width="60" height="30" as="geometry"/>
                </mxCell>
                <mxCell id="176" value="clk" style="edgeStyle=none;orthogonalLoop=1;jettySize=auto;html=1;" parent="1" edge="1">
                    <mxGeometry width="80" relative="1" as="geometry">
                        <mxPoint x="-80" y="1920" as="sourcePoint"/>
                        <mxPoint y="1920" as="targetPoint"/>
                        <Array as="points"/>
                    </mxGeometry>
                </mxCell>
                <mxCell id="177" value="rst" style="edgeStyle=none;orthogonalLoop=1;jettySize=auto;html=1;" parent="1" edge="1">
                    <mxGeometry width="80" relative="1" as="geometry">
                        <mxPoint x="-80" y="1950" as="sourcePoint"/>
                        <mxPoint y="1950" as="targetPoint"/>
                        <Array as="points"/>
                    </mxGeometry>
                </mxCell>
                <mxCell id="178" value="in_en" style="edgeStyle=none;orthogonalLoop=1;jettySize=auto;html=1;" parent="1" edge="1">
                    <mxGeometry width="80" relative="1" as="geometry">
                        <mxPoint x="-80" y="1980" as="sourcePoint"/>
                        <mxPoint y="1980" as="targetPoint"/>
                        <Array as="points"/>
                    </mxGeometry>
                </mxCell>
                <mxCell id="179" value="iot_in[7:0]" style="edgeStyle=none;orthogonalLoop=1;jettySize=auto;html=1;" parent="1" edge="1">
                    <mxGeometry width="80" relative="1" as="geometry">
                        <mxPoint x="-80" y="2010" as="sourcePoint"/>
                        <mxPoint y="2010" as="targetPoint"/>
                        <Array as="points"/>
                    </mxGeometry>
                </mxCell>
                <mxCell id="180" value="fn_sel[2:0]" style="edgeStyle=none;orthogonalLoop=1;jettySize=auto;html=1;" parent="1" edge="1">
                    <mxGeometry width="80" relative="1" as="geometry">
                        <mxPoint x="-80" y="2040" as="sourcePoint"/>
                        <mxPoint y="2040" as="targetPoint"/>
                        <Array as="points"/>
                    </mxGeometry>
                </mxCell>
                <mxCell id="181" value="io_out[127:0]" style="edgeStyle=none;orthogonalLoop=1;jettySize=auto;html=1;" parent="1" edge="1">
                    <mxGeometry width="80" relative="1" as="geometry">
                        <mxPoint y="2130.29" as="sourcePoint"/>
                        <mxPoint x="-80" y="2130.29" as="targetPoint"/>
                        <Array as="points"/>
                    </mxGeometry>
                </mxCell>
                <mxCell id="182" value="busy" style="edgeStyle=none;orthogonalLoop=1;jettySize=auto;html=1;" parent="1" edge="1">
                    <mxGeometry width="80" relative="1" as="geometry">
                        <mxPoint y="2070" as="sourcePoint"/>
                        <mxPoint x="-80" y="2070" as="targetPoint"/>
                        <Array as="points"/>
                    </mxGeometry>
                </mxCell>
                <mxCell id="183" value="valid" style="edgeStyle=none;orthogonalLoop=1;jettySize=auto;html=1;" parent="1" edge="1">
                    <mxGeometry width="80" relative="1" as="geometry">
                        <mxPoint y="2100" as="sourcePoint"/>
                        <mxPoint x="-80" y="2100" as="targetPoint"/>
                        <Array as="points"/>
                    </mxGeometry>
                </mxCell>
                <mxCell id="185" value="" style="whiteSpace=wrap;html=1;" parent="1" vertex="1">
                    <mxGeometry y="1390" width="920" height="860" as="geometry"/>
                </mxCell>
                <mxCell id="200" value="encrypter/decrypter" style="whiteSpace=wrap;html=1;" parent="1" vertex="1">
                    <mxGeometry x="60" y="1650" width="810" height="180" as="geometry"/>
                </mxCell>
                <mxCell id="213" value="crc_generator" style="whiteSpace=wrap;html=1;" parent="1" vertex="1">
                    <mxGeometry x="60" y="1850" width="810" height="160" as="geometry"/>
                </mxCell>
                <mxCell id="218" value="Comparator" style="whiteSpace=wrap;html=1;" parent="1" vertex="1">
                    <mxGeometry x="60" y="2040" width="810" height="180" as="geometry"/>
                </mxCell>
                <mxCell id="223" value="System Controller" style="whiteSpace=wrap;html=1;" parent="1" vertex="1">
                    <mxGeometry x="60" y="1400" width="810" height="32.5" as="geometry"/>
                </mxCell>
                <mxCell id="231" value="i_en" style="edgeStyle=none;orthogonalLoop=1;jettySize=auto;html=1;entryX=0.185;entryY=0.278;entryDx=0;entryDy=0;entryPerimeter=0;" parent="1" edge="1">
                    <mxGeometry width="80" relative="1" as="geometry">
                        <mxPoint x="60" y="1720" as="sourcePoint"/>
                        <mxPoint x="209.8499999999999" y="1720.04" as="targetPoint"/>
                        <Array as="points"/>
                    </mxGeometry>
                </mxCell>
                <mxCell id="232" value="iot_in[127:0]" style="edgeStyle=none;orthogonalLoop=1;jettySize=auto;html=1;entryX=0.185;entryY=0.389;entryDx=0;entryDy=0;entryPerimeter=0;" parent="1" edge="1">
                    <mxGeometry width="80" relative="1" as="geometry">
                        <mxPoint x="60.08" y="1760" as="sourcePoint"/>
                        <mxPoint x="209.92999999999992" y="1760.0200000000004" as="targetPoint"/>
                        <Array as="points"/>
                    </mxGeometry>
                </mxCell>
                <mxCell id="233" value="i_clk" style="edgeStyle=none;orthogonalLoop=1;jettySize=auto;html=1;entryX=0.185;entryY=0.111;entryDx=0;entryDy=0;entryPerimeter=0;" parent="1" edge="1">
                    <mxGeometry width="80" relative="1" as="geometry">
                        <mxPoint x="60" y="1680" as="sourcePoint"/>
                        <mxPoint x="209.8499999999999" y="1679.98" as="targetPoint"/>
                        <Array as="points"/>
                    </mxGeometry>
                </mxCell>
                <mxCell id="234" value="i_rst" style="edgeStyle=none;orthogonalLoop=1;jettySize=auto;html=1;entryX=0.185;entryY=0.222;entryDx=0;entryDy=0;entryPerimeter=0;" parent="1" edge="1">
                    <mxGeometry width="80" relative="1" as="geometry">
                        <mxPoint x="60" y="1700" as="sourcePoint"/>
                        <mxPoint x="209.8499999999999" y="1699.9600000000005" as="targetPoint"/>
                        <Array as="points"/>
                    </mxGeometry>
                </mxCell>
                <mxCell id="235" value="i_fn_sel" style="edgeStyle=none;orthogonalLoop=1;jettySize=auto;html=1;entryX=0.185;entryY=0.444;entryDx=0;entryDy=0;entryPerimeter=0;" parent="1" edge="1">
                    <mxGeometry width="80" relative="1" as="geometry">
                        <mxPoint x="60" y="1740" as="sourcePoint"/>
                        <mxPoint x="209.8499999999999" y="1739.92" as="targetPoint"/>
                        <Array as="points"/>
                    </mxGeometry>
                </mxCell>
                <mxCell id="236" value="o_done" style="edgeStyle=none;orthogonalLoop=1;jettySize=auto;html=1;exitX=0.185;exitY=0.667;exitDx=0;exitDy=0;exitPerimeter=0;" parent="1" edge="1">
                    <mxGeometry width="80" relative="1" as="geometry">
                        <mxPoint x="209.8499999999999" y="1780.06" as="sourcePoint"/>
                        <mxPoint x="60" y="1780" as="targetPoint"/>
                        <Array as="points"/>
                    </mxGeometry>
                </mxCell>
                <mxCell id="237" value="iot_out[127:0]" style="edgeStyle=none;orthogonalLoop=1;jettySize=auto;html=1;entryX=0.185;entryY=0.389;entryDx=0;entryDy=0;entryPerimeter=0;" parent="1" edge="1">
                    <mxGeometry width="80" relative="1" as="geometry">
                        <mxPoint x="209.92999999999984" y="1800.0200000000004" as="sourcePoint"/>
                        <mxPoint x="60.0799999999997" y="1800" as="targetPoint"/>
                        <Array as="points"/>
                    </mxGeometry>
                </mxCell>
                <mxCell id="238" value="i_en" style="edgeStyle=none;orthogonalLoop=1;jettySize=auto;html=1;entryX=0.185;entryY=0.278;entryDx=0;entryDy=0;entryPerimeter=0;" parent="1" edge="1">
                    <mxGeometry width="80" relative="1" as="geometry">
                        <mxPoint x="60.04" y="1919.65" as="sourcePoint"/>
                        <mxPoint x="209.8899999999999" y="1919.69" as="targetPoint"/>
                        <Array as="points"/>
                    </mxGeometry>
                </mxCell>
                <mxCell id="239" value="iot_in[127:0]" style="edgeStyle=none;orthogonalLoop=1;jettySize=auto;html=1;entryX=0.185;entryY=0.389;entryDx=0;entryDy=0;entryPerimeter=0;" parent="1" edge="1">
                    <mxGeometry width="80" relative="1" as="geometry">
                        <mxPoint x="60.1199999999997" y="1939.65" as="sourcePoint"/>
                        <mxPoint x="209.96999999999983" y="1939.6700000000005" as="targetPoint"/>
                        <Array as="points"/>
                    </mxGeometry>
                </mxCell>
                <mxCell id="240" value="i_clk" style="edgeStyle=none;orthogonalLoop=1;jettySize=auto;html=1;entryX=0.185;entryY=0.111;entryDx=0;entryDy=0;entryPerimeter=0;" parent="1" edge="1">
                    <mxGeometry width="80" relative="1" as="geometry">
                        <mxPoint x="60.04" y="1879.65" as="sourcePoint"/>
                        <mxPoint x="209.8899999999999" y="1879.63" as="targetPoint"/>
                        <Array as="points"/>
                    </mxGeometry>
                </mxCell>
                <mxCell id="241" value="i_rst" style="edgeStyle=none;orthogonalLoop=1;jettySize=auto;html=1;entryX=0.185;entryY=0.222;entryDx=0;entryDy=0;entryPerimeter=0;" parent="1" edge="1">
                    <mxGeometry width="80" relative="1" as="geometry">
                        <mxPoint x="60.04" y="1899.65" as="sourcePoint"/>
                        <mxPoint x="209.8899999999999" y="1899.6100000000006" as="targetPoint"/>
                        <Array as="points"/>
                    </mxGeometry>
                </mxCell>
                <mxCell id="243" value="o_done" style="edgeStyle=none;orthogonalLoop=1;jettySize=auto;html=1;exitX=0.185;exitY=0.667;exitDx=0;exitDy=0;exitPerimeter=0;" parent="1" edge="1">
                    <mxGeometry width="80" relative="1" as="geometry">
                        <mxPoint x="209.8899999999999" y="1959.71" as="sourcePoint"/>
                        <mxPoint x="60.04" y="1959.65" as="targetPoint"/>
                        <Array as="points"/>
                    </mxGeometry>
                </mxCell>
                <mxCell id="244" value="iot_out[127:0]" style="edgeStyle=none;orthogonalLoop=1;jettySize=auto;html=1;entryX=0.185;entryY=0.389;entryDx=0;entryDy=0;entryPerimeter=0;" parent="1" edge="1">
                    <mxGeometry width="80" relative="1" as="geometry">
                        <mxPoint x="209.96999999999983" y="1979.6700000000005" as="sourcePoint"/>
                        <mxPoint x="60.1199999999997" y="1979.65" as="targetPoint"/>
                        <Array as="points"/>
                    </mxGeometry>
                </mxCell>
                <mxCell id="257" value="i_en" style="edgeStyle=none;orthogonalLoop=1;jettySize=auto;html=1;entryX=0.185;entryY=0.278;entryDx=0;entryDy=0;entryPerimeter=0;" parent="1" edge="1">
                    <mxGeometry width="80" relative="1" as="geometry">
                        <mxPoint x="-29.930000000000007" y="382.18" as="sourcePoint"/>
                        <mxPoint x="119.91999999999967" y="382.21999999999997" as="targetPoint"/>
                        <Array as="points"/>
                    </mxGeometry>
                </mxCell>
                <mxCell id="258" value="iot_in[127:0]" style="edgeStyle=none;orthogonalLoop=1;jettySize=auto;html=1;entryX=0.185;entryY=0.389;entryDx=0;entryDy=0;entryPerimeter=0;" parent="1" edge="1">
                    <mxGeometry width="80" relative="1" as="geometry">
                        <mxPoint x="-29.85000000000008" y="422.18" as="sourcePoint"/>
                        <mxPoint x="119.99999999999983" y="422.2000000000009" as="targetPoint"/>
                        <Array as="points"/>
                    </mxGeometry>
                </mxCell>
                <mxCell id="259" value="i_clk" style="edgeStyle=none;orthogonalLoop=1;jettySize=auto;html=1;entryX=0.185;entryY=0.111;entryDx=0;entryDy=0;entryPerimeter=0;" parent="1" edge="1">
                    <mxGeometry width="80" relative="1" as="geometry">
                        <mxPoint x="-29.930000000000007" y="342.18" as="sourcePoint"/>
                        <mxPoint x="119.91999999999967" y="342.16" as="targetPoint"/>
                        <Array as="points"/>
                    </mxGeometry>
                </mxCell>
                <mxCell id="260" value="i_rst" style="edgeStyle=none;orthogonalLoop=1;jettySize=auto;html=1;entryX=0.185;entryY=0.222;entryDx=0;entryDy=0;entryPerimeter=0;" parent="1" edge="1">
                    <mxGeometry width="80" relative="1" as="geometry">
                        <mxPoint x="-29.930000000000007" y="362.18" as="sourcePoint"/>
                        <mxPoint x="119.91999999999967" y="362.1400000000005" as="targetPoint"/>
                        <Array as="points"/>
                    </mxGeometry>
                </mxCell>
                <mxCell id="261" value="i_fn_sel" style="edgeStyle=none;orthogonalLoop=1;jettySize=auto;html=1;entryX=0.185;entryY=0.444;entryDx=0;entryDy=0;entryPerimeter=0;" parent="1" edge="1">
                    <mxGeometry width="80" relative="1" as="geometry">
                        <mxPoint x="-29.930000000000007" y="402.18" as="sourcePoint"/>
                        <mxPoint x="119.91999999999967" y="402.1000000000001" as="targetPoint"/>
                        <Array as="points"/>
                    </mxGeometry>
                </mxCell>
                <mxCell id="262" value="o_done" style="edgeStyle=none;orthogonalLoop=1;jettySize=auto;html=1;exitX=0.185;exitY=0.667;exitDx=0;exitDy=0;exitPerimeter=0;" parent="1" edge="1">
                    <mxGeometry width="80" relative="1" as="geometry">
                        <mxPoint x="119.91999999999967" y="442.23999999999995" as="sourcePoint"/>
                        <mxPoint x="-29.930000000000007" y="442.18" as="targetPoint"/>
                        <Array as="points"/>
                    </mxGeometry>
                </mxCell>
                <mxCell id="263" value="iot_out[127:0]" style="edgeStyle=none;orthogonalLoop=1;jettySize=auto;html=1;entryX=0.185;entryY=0.389;entryDx=0;entryDy=0;entryPerimeter=0;" parent="1" edge="1">
                    <mxGeometry width="80" relative="1" as="geometry">
                        <mxPoint x="119.99999999999983" y="462.2000000000009" as="sourcePoint"/>
                        <mxPoint x="-29.85000000000008" y="462.18" as="targetPoint"/>
                        <Array as="points"/>
                    </mxGeometry>
                </mxCell>
                <mxCell id="264" value="i_en" style="edgeStyle=none;orthogonalLoop=1;jettySize=auto;html=1;entryX=0.185;entryY=0.278;entryDx=0;entryDy=0;entryPerimeter=0;" parent="1" edge="1">
                    <mxGeometry width="80" relative="1" as="geometry">
                        <mxPoint x="930.0699999999999" y="349.59" as="sourcePoint"/>
                        <mxPoint x="1079.9199999999998" y="349.62999999999994" as="targetPoint"/>
                        <Array as="points"/>
                    </mxGeometry>
                </mxCell>
                <mxCell id="265" value="iot_in[127:0]" style="edgeStyle=none;orthogonalLoop=1;jettySize=auto;html=1;entryX=0.185;entryY=0.389;entryDx=0;entryDy=0;entryPerimeter=0;" parent="1" edge="1">
                    <mxGeometry width="80" relative="1" as="geometry">
                        <mxPoint x="930.1499999999996" y="369.59" as="sourcePoint"/>
                        <mxPoint x="1080" y="369.6100000000004" as="targetPoint"/>
                        <Array as="points"/>
                    </mxGeometry>
                </mxCell>
                <mxCell id="266" value="i_clk" style="edgeStyle=none;orthogonalLoop=1;jettySize=auto;html=1;entryX=0.185;entryY=0.111;entryDx=0;entryDy=0;entryPerimeter=0;" parent="1" edge="1">
                    <mxGeometry width="80" relative="1" as="geometry">
                        <mxPoint x="930.0699999999999" y="309.59" as="sourcePoint"/>
                        <mxPoint x="1079.9199999999998" y="309.57" as="targetPoint"/>
                        <Array as="points"/>
                    </mxGeometry>
                </mxCell>
                <mxCell id="267" value="i_rst" style="edgeStyle=none;orthogonalLoop=1;jettySize=auto;html=1;entryX=0.185;entryY=0.222;entryDx=0;entryDy=0;entryPerimeter=0;" parent="1" edge="1">
                    <mxGeometry width="80" relative="1" as="geometry">
                        <mxPoint x="930.0699999999999" y="329.59" as="sourcePoint"/>
                        <mxPoint x="1079.9199999999998" y="329.55000000000047" as="targetPoint"/>
                        <Array as="points"/>
                    </mxGeometry>
                </mxCell>
                <mxCell id="268" value="o_done" style="edgeStyle=none;orthogonalLoop=1;jettySize=auto;html=1;exitX=0.185;exitY=0.667;exitDx=0;exitDy=0;exitPerimeter=0;" parent="1" edge="1">
                    <mxGeometry width="80" relative="1" as="geometry">
                        <mxPoint x="1079.9199999999998" y="389.6499999999999" as="sourcePoint"/>
                        <mxPoint x="930.0699999999999" y="389.59" as="targetPoint"/>
                        <Array as="points"/>
                    </mxGeometry>
                </mxCell>
                <mxCell id="269" value="iot_out[127:0]" style="edgeStyle=none;orthogonalLoop=1;jettySize=auto;html=1;entryX=0.185;entryY=0.389;entryDx=0;entryDy=0;entryPerimeter=0;" parent="1" edge="1">
                    <mxGeometry width="80" relative="1" as="geometry">
                        <mxPoint x="1080" y="409.6100000000004" as="sourcePoint"/>
                        <mxPoint x="930.1499999999996" y="409.59" as="targetPoint"/>
                        <Array as="points"/>
                    </mxGeometry>
                </mxCell>
                <mxCell id="270" value="" style="edgeStyle=none;orthogonalLoop=1;jettySize=auto;html=1;exitX=0.5;exitY=1;exitDx=0;exitDy=0;" parent="1" source="273" edge="1">
                    <mxGeometry width="80" relative="1" as="geometry">
                        <mxPoint x="330" y="740" as="sourcePoint"/>
                        <mxPoint x="330" y="855" as="targetPoint"/>
                        <Array as="points"/>
                    </mxGeometry>
                </mxCell>
                <mxCell id="271" value="" style="edgeStyle=none;orthogonalLoop=1;jettySize=auto;html=1;exitX=0.5;exitY=1;exitDx=0;exitDy=0;" parent="1" source="274" edge="1">
                    <mxGeometry width="80" relative="1" as="geometry">
                        <mxPoint x="364" y="780" as="sourcePoint"/>
                        <mxPoint x="363.95" y="855" as="targetPoint"/>
                        <Array as="points"/>
                    </mxGeometry>
                </mxCell>
                <mxCell id="273" value="sft_direct" style="text;strokeColor=none;align=center;fillColor=none;html=1;verticalAlign=middle;whiteSpace=wrap;rounded=0;" parent="1" vertex="1">
                    <mxGeometry x="300" y="775" width="60" height="30" as="geometry"/>
                </mxCell>
                <mxCell id="274" value="sft_amnt" style="text;strokeColor=none;align=center;fillColor=none;html=1;verticalAlign=middle;whiteSpace=wrap;rounded=0;" parent="1" vertex="1">
                    <mxGeometry x="335" y="795" width="60" height="30" as="geometry"/>
                </mxCell>
                <mxCell id="276" value="" style="edgeStyle=none;orthogonalLoop=1;jettySize=auto;html=1;entryX=1;entryY=0.5;entryDx=0;entryDy=0;exitX=1;exitY=0.25;exitDx=0;exitDy=0;" parent="1" source="88" target="93" edge="1">
                    <mxGeometry width="80" relative="1" as="geometry">
                        <mxPoint x="450" y="-290" as="sourcePoint"/>
                        <mxPoint x="570" y="-100" as="targetPoint"/>
                        <Array as="points">
                            <mxPoint x="450" y="-289"/>
                            <mxPoint x="450" y="-153"/>
                        </Array>
                    </mxGeometry>
                </mxCell>
                <mxCell id="280" value="" style="edgeStyle=none;orthogonalLoop=1;jettySize=auto;html=1;entryX=1;entryY=0.5;entryDx=0;entryDy=0;exitX=1;exitY=0.75;exitDx=0;exitDy=0;" parent="1" source="88" target="94" edge="1">
                    <mxGeometry width="80" relative="1" as="geometry">
                        <mxPoint x="469" y="-250" as="sourcePoint"/>
                        <mxPoint x="570" y="-50" as="targetPoint"/>
                        <Array as="points">
                            <mxPoint x="470" y="-246"/>
                            <mxPoint x="470" y="-111"/>
                        </Array>
                    </mxGeometry>
                </mxCell>
                <mxCell id="283" value="dividend&lt;br&gt;[127:0]" style="whiteSpace=wrap;html=1;" parent="1" vertex="1">
                    <mxGeometry x="1120" y="150" width="50" height="370" as="geometry"/>
                </mxCell>
                <mxCell id="285" value="" style="edgeStyle=none;orthogonalLoop=1;jettySize=auto;html=1;exitX=0.5;exitY=1;exitDx=0;exitDy=0;entryX=0.415;entryY=0.691;entryDx=0;entryDy=0;entryPerimeter=0;" parent="1" source="129" target="153" edge="1">
                    <mxGeometry width="80" relative="1" as="geometry">
                        <mxPoint x="1630" y="550" as="sourcePoint"/>
                        <mxPoint x="1710" y="550" as="targetPoint"/>
                        <Array as="points"/>
                    </mxGeometry>
                </mxCell>
                <mxCell id="286" value="" style="edgeStyle=none;orthogonalLoop=1;jettySize=auto;html=1;exitX=0.5;exitY=1;exitDx=0;exitDy=0;entryX=0.359;entryY=0.691;entryDx=0;entryDy=0;entryPerimeter=0;" parent="1" edge="1">
                    <mxGeometry width="80" relative="1" as="geometry">
                        <mxPoint x="1424.74" y="470.0000000000002" as="sourcePoint"/>
                        <mxPoint x="1424.6300000000003" y="509.8800000000001" as="targetPoint"/>
                        <Array as="points"/>
                    </mxGeometry>
                </mxCell>
                <mxCell id="287" value="" style="edgeStyle=none;orthogonalLoop=1;jettySize=auto;html=1;exitX=0.5;exitY=1;exitDx=0;exitDy=0;entryX=0.359;entryY=0.691;entryDx=0;entryDy=0;entryPerimeter=0;" parent="1" edge="1">
                    <mxGeometry width="80" relative="1" as="geometry">
                        <mxPoint x="1473.74" y="470.0000000000002" as="sourcePoint"/>
                        <mxPoint x="1473.6300000000003" y="509.8800000000001" as="targetPoint"/>
                        <Array as="points"/>
                    </mxGeometry>
                </mxCell>
                <mxCell id="288" value="" style="edgeStyle=none;orthogonalLoop=1;jettySize=auto;html=1;entryX=0.75;entryY=0;entryDx=0;entryDy=0;" parent="1" target="283" edge="1">
                    <mxGeometry width="80" relative="1" as="geometry">
                        <mxPoint x="1158" y="-30" as="sourcePoint"/>
                        <mxPoint x="1260" y="40" as="targetPoint"/>
                        <Array as="points"/>
                    </mxGeometry>
                </mxCell>
                <mxCell id="289" value="wen_div_r" style="text;strokeColor=none;align=center;fillColor=none;html=1;verticalAlign=middle;whiteSpace=wrap;rounded=0;" parent="1" vertex="1">
                    <mxGeometry x="1130" y="-60" width="60" height="30" as="geometry"/>
                </mxCell>
                <mxCell id="290" value="rst_div_r" style="text;strokeColor=none;align=center;fillColor=none;html=1;verticalAlign=middle;whiteSpace=wrap;rounded=0;" parent="1" vertex="1">
                    <mxGeometry x="1130" y="-80" width="60" height="30" as="geometry"/>
                </mxCell>
                <mxCell id="291" value="" style="whiteSpace=wrap;html=1;" parent="1" vertex="1">
                    <mxGeometry x="1220" y="1400" width="510" height="740" as="geometry"/>
                </mxCell>
                <mxCell id="292" value="i_en" style="edgeStyle=none;orthogonalLoop=1;jettySize=auto;html=1;entryX=0.185;entryY=0.278;entryDx=0;entryDy=0;entryPerimeter=0;" parent="1" edge="1">
                    <mxGeometry width="80" relative="1" as="geometry">
                        <mxPoint x="1070.0699999999997" y="1690.0200000000002" as="sourcePoint"/>
                        <mxPoint x="1219.92" y="1690.0600000000002" as="targetPoint"/>
                        <Array as="points"/>
                    </mxGeometry>
                </mxCell>
                <mxCell id="293" value="iot_in[127:0]" style="edgeStyle=none;orthogonalLoop=1;jettySize=auto;html=1;entryX=0.185;entryY=0.389;entryDx=0;entryDy=0;entryPerimeter=0;" parent="1" edge="1">
                    <mxGeometry width="80" relative="1" as="geometry">
                        <mxPoint x="1070.1499999999996" y="1710.0200000000002" as="sourcePoint"/>
                        <mxPoint x="1220" y="1710.0400000000006" as="targetPoint"/>
                        <Array as="points"/>
                    </mxGeometry>
                </mxCell>
                <mxCell id="294" value="i_clk" style="edgeStyle=none;orthogonalLoop=1;jettySize=auto;html=1;entryX=0.185;entryY=0.111;entryDx=0;entryDy=0;entryPerimeter=0;" parent="1" edge="1">
                    <mxGeometry width="80" relative="1" as="geometry">
                        <mxPoint x="1070.0699999999997" y="1650.0200000000002" as="sourcePoint"/>
                        <mxPoint x="1219.92" y="1650.0000000000002" as="targetPoint"/>
                        <Array as="points"/>
                    </mxGeometry>
                </mxCell>
                <mxCell id="295" value="i_rst" style="edgeStyle=none;orthogonalLoop=1;jettySize=auto;html=1;entryX=0.185;entryY=0.222;entryDx=0;entryDy=0;entryPerimeter=0;" parent="1" edge="1">
                    <mxGeometry width="80" relative="1" as="geometry">
                        <mxPoint x="1070.0699999999997" y="1670.0200000000002" as="sourcePoint"/>
                        <mxPoint x="1219.92" y="1669.9800000000007" as="targetPoint"/>
                        <Array as="points"/>
                    </mxGeometry>
                </mxCell>
                <mxCell id="296" value="o_done" style="edgeStyle=none;orthogonalLoop=1;jettySize=auto;html=1;exitX=0.185;exitY=0.667;exitDx=0;exitDy=0;exitPerimeter=0;" parent="1" edge="1">
                    <mxGeometry width="80" relative="1" as="geometry">
                        <mxPoint x="1219.92" y="1750.0600000000002" as="sourcePoint"/>
                        <mxPoint x="1070.0699999999997" y="1750.0000000000002" as="targetPoint"/>
                        <Array as="points"/>
                    </mxGeometry>
                </mxCell>
                <mxCell id="297" value="iot_out[127:0]" style="edgeStyle=none;orthogonalLoop=1;jettySize=auto;html=1;entryX=0.185;entryY=0.389;entryDx=0;entryDy=0;entryPerimeter=0;" parent="1" edge="1">
                    <mxGeometry width="80" relative="1" as="geometry">
                        <mxPoint x="1220" y="1770.0200000000007" as="sourcePoint"/>
                        <mxPoint x="1070.1499999999996" y="1770.0000000000002" as="targetPoint"/>
                        <Array as="points"/>
                    </mxGeometry>
                </mxCell>
                <mxCell id="298" value="data0" style="whiteSpace=wrap;html=1;direction=south;" parent="1" vertex="1">
                    <mxGeometry x="1440" y="1475" width="30" height="590" as="geometry"/>
                </mxCell>
                <mxCell id="299" value="o_ready" style="edgeStyle=none;orthogonalLoop=1;jettySize=auto;html=1;" parent="1" edge="1">
                    <mxGeometry width="80" relative="1" as="geometry">
                        <mxPoint x="1220" y="1730" as="sourcePoint"/>
                        <mxPoint x="1070" y="1730" as="targetPoint"/>
                        <Array as="points"/>
                    </mxGeometry>
                </mxCell>
                <mxCell id="301" value="data1" style="whiteSpace=wrap;html=1;direction=south;" parent="1" vertex="1">
                    <mxGeometry x="1500" y="1475" width="30" height="590" as="geometry"/>
                </mxCell>
                <mxCell id="302" value="smaller_data" style="whiteSpace=wrap;html=1;" parent="1" vertex="1">
                    <mxGeometry x="1260" y="1475" width="120" height="60" as="geometry"/>
                </mxCell>
                <mxCell id="304" value="" style="whiteSpace=wrap;html=1;" parent="1" vertex="1">
                    <mxGeometry x="1225" y="2230" width="940" height="740" as="geometry"/>
                </mxCell>
                <mxCell id="305" value="i_en" style="edgeStyle=none;orthogonalLoop=1;jettySize=auto;html=1;entryX=0.185;entryY=0.278;entryDx=0;entryDy=0;entryPerimeter=0;" parent="1" edge="1">
                    <mxGeometry width="80" relative="1" as="geometry">
                        <mxPoint x="1075.0699999999997" y="2520.02" as="sourcePoint"/>
                        <mxPoint x="1224.92" y="2520.060000000001" as="targetPoint"/>
                        <Array as="points"/>
                    </mxGeometry>
                </mxCell>
                <mxCell id="306" value="iot_in[127:0]" style="edgeStyle=none;orthogonalLoop=1;jettySize=auto;html=1;entryX=0.185;entryY=0.389;entryDx=0;entryDy=0;entryPerimeter=0;" parent="1" edge="1">
                    <mxGeometry width="80" relative="1" as="geometry">
                        <mxPoint x="1075.1499999999996" y="2540.02" as="sourcePoint"/>
                        <mxPoint x="1225" y="2540.0400000000013" as="targetPoint"/>
                        <Array as="points"/>
                    </mxGeometry>
                </mxCell>
                <mxCell id="307" value="i_clk" style="edgeStyle=none;orthogonalLoop=1;jettySize=auto;html=1;entryX=0.185;entryY=0.111;entryDx=0;entryDy=0;entryPerimeter=0;" parent="1" edge="1">
                    <mxGeometry width="80" relative="1" as="geometry">
                        <mxPoint x="1075.0699999999997" y="2480.02" as="sourcePoint"/>
                        <mxPoint x="1224.92" y="2480" as="targetPoint"/>
                        <Array as="points"/>
                    </mxGeometry>
                </mxCell>
                <mxCell id="308" value="i_rst" style="edgeStyle=none;orthogonalLoop=1;jettySize=auto;html=1;entryX=0.185;entryY=0.222;entryDx=0;entryDy=0;entryPerimeter=0;" parent="1" edge="1">
                    <mxGeometry width="80" relative="1" as="geometry">
                        <mxPoint x="1075.0699999999997" y="2500.02" as="sourcePoint"/>
                        <mxPoint x="1224.92" y="2499.9800000000005" as="targetPoint"/>
                        <Array as="points"/>
                    </mxGeometry>
                </mxCell>
                <mxCell id="309" value="o_done" style="edgeStyle=none;orthogonalLoop=1;jettySize=auto;html=1;exitX=0.185;exitY=0.667;exitDx=0;exitDy=0;exitPerimeter=0;" parent="1" edge="1">
                    <mxGeometry width="80" relative="1" as="geometry">
                        <mxPoint x="1224.92" y="2580.060000000001" as="sourcePoint"/>
                        <mxPoint x="1075.0699999999997" y="2580" as="targetPoint"/>
                        <Array as="points"/>
                    </mxGeometry>
                </mxCell>
                <mxCell id="310" value="iot_out[127:0]" style="edgeStyle=none;orthogonalLoop=1;jettySize=auto;html=1;entryX=0.185;entryY=0.389;entryDx=0;entryDy=0;entryPerimeter=0;" parent="1" edge="1">
                    <mxGeometry width="80" relative="1" as="geometry">
                        <mxPoint x="1225" y="2600.02" as="sourcePoint"/>
                        <mxPoint x="1075.1499999999996" y="2600" as="targetPoint"/>
                        <Array as="points"/>
                    </mxGeometry>
                </mxCell>
                <mxCell id="311" value="data0" style="whiteSpace=wrap;html=1;direction=south;" parent="1" vertex="1">
                    <mxGeometry x="1445" y="2305" width="30" height="590" as="geometry"/>
                </mxCell>
                <mxCell id="312" value="o_ready" style="edgeStyle=none;orthogonalLoop=1;jettySize=auto;html=1;" parent="1" edge="1">
                    <mxGeometry width="80" relative="1" as="geometry">
                        <mxPoint x="1225" y="2560" as="sourcePoint"/>
                        <mxPoint x="1075" y="2560" as="targetPoint"/>
                        <Array as="points"/>
                    </mxGeometry>
                </mxCell>
                <mxCell id="313" value="data1" style="whiteSpace=wrap;html=1;direction=south;" parent="1" vertex="1">
                    <mxGeometry x="1505" y="2305" width="30" height="590" as="geometry"/>
                </mxCell>
                <mxCell id="314" value="smaller_data" style="whiteSpace=wrap;html=1;" parent="1" vertex="1">
                    <mxGeometry x="1565" y="2305" width="120" height="60" as="geometry"/>
                </mxCell>
                <mxCell id="347" value="" style="edgeStyle=none;orthogonalLoop=1;jettySize=auto;html=1;entryX=0.285;entryY=0.857;entryDx=0;entryDy=0;entryPerimeter=0;" parent="1" target="71" edge="1">
                    <mxGeometry width="80" relative="1" as="geometry">
                        <mxPoint x="315" y="-111.43" as="sourcePoint"/>
                        <mxPoint x="235" y="-111.43" as="targetPoint"/>
                        <Array as="points"/>
                    </mxGeometry>
                </mxCell>
                <mxCell id="348" value="" style="edgeStyle=none;orthogonalLoop=1;jettySize=auto;html=1;exitX=0;exitY=0.5;exitDx=0;exitDy=0;" parent="1" edge="1" source="93">
                    <mxGeometry width="80" relative="1" as="geometry">
                        <mxPoint x="380" y="-169.43" as="sourcePoint"/>
                        <mxPoint x="230" y="-153" as="targetPoint"/>
                        <Array as="points"/>
                    </mxGeometry>
                </mxCell>
                <mxCell id="349" value="" style="endArrow=none;html=1;" parent="1" edge="1">
                    <mxGeometry width="50" height="50" relative="1" as="geometry">
                        <mxPoint x="230" y="-110" as="sourcePoint"/>
                        <mxPoint x="230" y="-150" as="targetPoint"/>
                    </mxGeometry>
                </mxCell>
                <mxCell id="350" value="" style="edgeStyle=none;orthogonalLoop=1;jettySize=auto;html=1;entryX=0;entryY=0.5;entryDx=0;entryDy=0;" parent="1" target="106" edge="1">
                    <mxGeometry width="80" relative="1" as="geometry">
                        <mxPoint x="230" y="-148" as="sourcePoint"/>
                        <mxPoint x="150" y="-148" as="targetPoint"/>
                        <Array as="points">
                            <mxPoint x="120" y="-148"/>
                            <mxPoint x="120" y="-256"/>
                        </Array>
                    </mxGeometry>
                </mxCell>
                <mxCell id="351" value="" style="edgeStyle=none;orthogonalLoop=1;jettySize=auto;html=1;exitX=0.164;exitY=0.001;exitDx=0;exitDy=0;exitPerimeter=0;" parent="1" edge="1">
                    <mxGeometry width="80" relative="1" as="geometry">
                        <mxPoint x="209.87999999999988" y="10.600000000000136" as="sourcePoint"/>
                        <mxPoint x="210" y="120" as="targetPoint"/>
                        <Array as="points"/>
                    </mxGeometry>
                </mxCell>
                <mxCell id="352" value="wen_iot_buf" style="text;strokeColor=none;align=center;fillColor=none;html=1;verticalAlign=middle;whiteSpace=wrap;rounded=0;" parent="1" vertex="1">
                    <mxGeometry x="180" y="-20" width="60" height="30" as="geometry"/>
                </mxCell>
                <mxCell id="356" value="round_ctr" style="whiteSpace=wrap;html=1;" parent="1" vertex="1">
                    <mxGeometry x="590" y="110" width="120" height="60" as="geometry"/>
                </mxCell>
                <mxCell id="357" value="" style="edgeStyle=none;orthogonalLoop=1;jettySize=auto;html=1;" parent="1" edge="1">
                    <mxGeometry width="80" relative="1" as="geometry">
                        <mxPoint x="620" y="20" as="sourcePoint"/>
                        <mxPoint x="620" y="110" as="targetPoint"/>
                        <Array as="points"/>
                    </mxGeometry>
                </mxCell>
                <mxCell id="360" value="LUT" style="whiteSpace=wrap;html=1;" parent="1" vertex="1">
                    <mxGeometry x="415" y="730" width="120" height="60" as="geometry"/>
                </mxCell>
                <mxCell id="358" value="rst_ctr&amp;nbsp;&lt;br&gt;incr_ctr" style="text;strokeColor=none;align=center;fillColor=none;html=1;verticalAlign=middle;whiteSpace=wrap;rounded=0;" parent="1" vertex="1">
                    <mxGeometry x="590" y="-10" width="60" height="30" as="geometry"/>
                </mxCell>
                <mxCell id="361" value="" style="edgeStyle=none;orthogonalLoop=1;jettySize=auto;html=1;entryX=0.5;entryY=0;entryDx=0;entryDy=0;exitX=0;exitY=0.25;exitDx=0;exitDy=0;" parent="1" source="360" target="273" edge="1">
                    <mxGeometry width="80" relative="1" as="geometry">
                        <mxPoint x="430" y="760" as="sourcePoint"/>
                        <mxPoint x="510" y="760" as="targetPoint"/>
                        <Array as="points">
                            <mxPoint x="330" y="745"/>
                        </Array>
                    </mxGeometry>
                </mxCell>
                <mxCell id="362" value="" style="edgeStyle=none;orthogonalLoop=1;jettySize=auto;html=1;exitX=0;exitY=0.75;exitDx=0;exitDy=0;entryX=0.5;entryY=0;entryDx=0;entryDy=0;" parent="1" source="360" target="274" edge="1">
                    <mxGeometry width="80" relative="1" as="geometry">
                        <mxPoint x="580" y="780" as="sourcePoint"/>
                        <mxPoint x="660" y="780" as="targetPoint"/>
                        <Array as="points">
                            <mxPoint x="365" y="775"/>
                        </Array>
                    </mxGeometry>
                </mxCell>
                <mxCell id="363" value="mode" style="edgeStyle=none;orthogonalLoop=1;jettySize=auto;html=1;" parent="1" edge="1">
                    <mxGeometry width="80" relative="1" as="geometry">
                        <mxPoint x="690" y="750" as="sourcePoint"/>
                        <mxPoint x="535" y="750" as="targetPoint"/>
                        <Array as="points"/>
                    </mxGeometry>
                </mxCell>
                <mxCell id="364" value="round" style="edgeStyle=none;orthogonalLoop=1;jettySize=auto;html=1;" parent="1" edge="1">
                    <mxGeometry width="80" relative="1" as="geometry">
                        <mxPoint x="690" y="774.74" as="sourcePoint"/>
                        <mxPoint x="535" y="774.74" as="targetPoint"/>
                        <Array as="points"/>
                    </mxGeometry>
                </mxCell>
                <mxCell id="365" value="" style="edgeStyle=none;orthogonalLoop=1;jettySize=auto;html=1;entryX=0.5;entryY=0;entryDx=0;entryDy=0;" parent="1" target="374" edge="1">
                    <mxGeometry width="80" relative="1" as="geometry">
                        <mxPoint x="1170" y="190" as="sourcePoint"/>
                        <mxPoint x="1664.81" y="191.23999999999978" as="targetPoint"/>
                        <Array as="points">
                            <mxPoint x="1435" y="190"/>
                        </Array>
                    </mxGeometry>
                </mxCell>
                <mxCell id="366" value="data_out" style="text;strokeColor=none;align=center;fillColor=none;html=1;verticalAlign=middle;whiteSpace=wrap;rounded=0;" parent="1" vertex="1">
                    <mxGeometry x="1114" y="174" width="60" height="30" as="geometry"/>
                </mxCell>
                <mxCell id="368" value="" style="edgeStyle=none;orthogonalLoop=1;jettySize=auto;html=1;" parent="1" target="301" edge="1">
                    <mxGeometry width="80" relative="1" as="geometry">
                        <mxPoint x="1510" y="2120" as="sourcePoint"/>
                        <mxPoint x="1590" y="2080" as="targetPoint"/>
                        <Array as="points"/>
                    </mxGeometry>
                </mxCell>
                <mxCell id="370" value="" style="edgeStyle=none;orthogonalLoop=1;jettySize=auto;html=1;" parent="1" edge="1">
                    <mxGeometry width="80" relative="1" as="geometry">
                        <mxPoint x="1450" y="2160.0000000000005" as="sourcePoint"/>
                        <mxPoint x="1451.2179487179483" y="2065.0000000000005" as="targetPoint"/>
                        <Array as="points"/>
                    </mxGeometry>
                </mxCell>
                <mxCell id="371" value="rst_data0_r&lt;br&gt;wen_data0_r" style="text;strokeColor=none;align=center;fillColor=none;html=1;verticalAlign=middle;whiteSpace=wrap;rounded=0;" parent="1" vertex="1">
                    <mxGeometry x="1421" y="2160" width="60" height="30" as="geometry"/>
                </mxCell>
                <mxCell id="372" value="rst_data1_r&lt;br&gt;wen_data1_r" style="text;strokeColor=none;align=center;fillColor=none;html=1;verticalAlign=middle;whiteSpace=wrap;rounded=0;" parent="1" vertex="1">
                    <mxGeometry x="1481" y="2130" width="60" height="30" as="geometry"/>
                </mxCell>
                <mxCell id="374" value="remainder" style="whiteSpace=wrap;html=1;" parent="1" vertex="1">
                    <mxGeometry x="1290" y="300" width="290" height="60" as="geometry"/>
                </mxCell>
                <mxCell id="375" value="divide with 000" style="whiteSpace=wrap;html=1;" parent="1" vertex="1">
                    <mxGeometry x="1361" y="510" width="120" height="60" as="geometry"/>
                </mxCell>
                <mxCell id="376" value="" style="edgeStyle=none;orthogonalLoop=1;jettySize=auto;html=1;entryX=0.042;entryY=0.809;entryDx=0;entryDy=0;entryPerimeter=0;" parent="1" edge="1">
                    <mxGeometry width="80" relative="1" as="geometry">
                        <mxPoint x="1360" y="550" as="sourcePoint"/>
                        <mxPoint x="1099.8200000000002" y="550.1200000000003" as="targetPoint"/>
                        <Array as="points"/>
                    </mxGeometry>
                </mxCell>
                <mxCell id="377" value="" style="edgeStyle=none;orthogonalLoop=1;jettySize=auto;html=1;entryX=0;entryY=0.5;entryDx=0;entryDy=0;" parent="1" target="111" edge="1">
                    <mxGeometry width="80" relative="1" as="geometry">
                        <mxPoint x="120" y="-160" as="sourcePoint"/>
                        <mxPoint x="240" y="-50" as="targetPoint"/>
                        <Array as="points">
                            <mxPoint x="120" y="-80"/>
                            <mxPoint x="540" y="-80"/>
                            <mxPoint x="540" y="-267"/>
                        </Array>
                    </mxGeometry>
                </mxCell>
                <mxCell id="378" value="Data Loader" style="whiteSpace=wrap;html=1;" parent="1" vertex="1">
                    <mxGeometry x="60" y="1440" width="810" height="182.16" as="geometry"/>
                </mxCell>
                <mxCell id="397" value="i_en" style="edgeStyle=none;orthogonalLoop=1;jettySize=auto;html=1;entryX=0.185;entryY=0.278;entryDx=0;entryDy=0;entryPerimeter=0;" parent="1" edge="1">
                    <mxGeometry width="80" relative="1" as="geometry">
                        <mxPoint x="60" y="1500.46" as="sourcePoint"/>
                        <mxPoint x="209.85000000000014" y="1500.5" as="targetPoint"/>
                        <Array as="points"/>
                    </mxGeometry>
                </mxCell>
                <mxCell id="398" value="iot_in[127:0]" style="edgeStyle=none;orthogonalLoop=1;jettySize=auto;html=1;entryX=0.185;entryY=0.389;entryDx=0;entryDy=0;entryPerimeter=0;" parent="1" edge="1">
                    <mxGeometry width="80" relative="1" as="geometry">
                        <mxPoint x="59.99999999999993" y="1520.45" as="sourcePoint"/>
                        <mxPoint x="209.84999999999982" y="1520.4700000000005" as="targetPoint"/>
                        <Array as="points"/>
                    </mxGeometry>
                </mxCell>
                <mxCell id="399" value="i_clk" style="edgeStyle=none;orthogonalLoop=1;jettySize=auto;html=1;entryX=0.185;entryY=0.111;entryDx=0;entryDy=0;entryPerimeter=0;" parent="1" edge="1">
                    <mxGeometry width="80" relative="1" as="geometry">
                        <mxPoint x="60" y="1460.46" as="sourcePoint"/>
                        <mxPoint x="209.85000000000014" y="1460.4400000000005" as="targetPoint"/>
                        <Array as="points"/>
                    </mxGeometry>
                </mxCell>
                <mxCell id="400" value="i_rst" style="edgeStyle=none;orthogonalLoop=1;jettySize=auto;html=1;entryX=0.185;entryY=0.222;entryDx=0;entryDy=0;entryPerimeter=0;" parent="1" edge="1">
                    <mxGeometry width="80" relative="1" as="geometry">
                        <mxPoint x="60" y="1480.46" as="sourcePoint"/>
                        <mxPoint x="209.85000000000014" y="1480.420000000001" as="targetPoint"/>
                        <Array as="points"/>
                    </mxGeometry>
                </mxCell>
                <mxCell id="403" value="iot_out[127:0]" style="edgeStyle=none;orthogonalLoop=1;jettySize=auto;html=1;entryX=0.185;entryY=0.389;entryDx=0;entryDy=0;entryPerimeter=0;" parent="1" edge="1">
                    <mxGeometry width="80" relative="1" as="geometry">
                        <mxPoint x="209.92999999999984" y="1580.4800000000005" as="sourcePoint"/>
                        <mxPoint x="60.0799999999997" y="1580.46" as="targetPoint"/>
                        <Array as="points"/>
                    </mxGeometry>
                </mxCell>
                <mxCell id="404" value="o_busy" style="edgeStyle=none;orthogonalLoop=1;jettySize=auto;html=1;" parent="1" edge="1">
                    <mxGeometry width="80" relative="1" as="geometry">
                        <mxPoint x="210" y="1539" as="sourcePoint"/>
                        <mxPoint x="60" y="1539" as="targetPoint"/>
                        <Array as="points"/>
                    </mxGeometry>
                </mxCell>
                <mxCell id="405" value="i_dready" style="edgeStyle=none;orthogonalLoop=1;jettySize=auto;html=1;entryX=0.185;entryY=0.714;entryDx=0;entryDy=0;entryPerimeter=0;" parent="1" edge="1">
                    <mxGeometry width="80" relative="1" as="geometry">
                        <mxPoint x="60" y="1560" as="sourcePoint"/>
                        <mxPoint x="209.8499999999999" y="1560.0622399999997" as="targetPoint"/>
                        <Array as="points"/>
                    </mxGeometry>
                </mxCell>
                <mxCell id="406" value="o_dvalid" style="edgeStyle=none;orthogonalLoop=1;jettySize=auto;html=1;entryX=0.185;entryY=0.933;entryDx=0;entryDy=0;entryPerimeter=0;exitX=0.185;exitY=0.933;exitDx=0;exitDy=0;exitPerimeter=0;" parent="1" edge="1">
                    <mxGeometry width="80" relative="1" as="geometry">
                        <mxPoint x="209.8499999999999" y="1599.9552799999997" as="sourcePoint"/>
                        <mxPoint x="60" y="1600" as="targetPoint"/>
                        <Array as="points"/>
                    </mxGeometry>
                </mxCell>
                <mxCell id="408" value="i_clk" style="edgeStyle=none;orthogonalLoop=1;jettySize=auto;html=1;" parent="1" edge="1">
                    <mxGeometry width="80" relative="1" as="geometry">
                        <mxPoint x="60" y="2058.9999999999995" as="sourcePoint"/>
                        <mxPoint x="220" y="2058.9999999999995" as="targetPoint"/>
                        <Array as="points"/>
                    </mxGeometry>
                </mxCell>
                <mxCell id="409" value="i_rst" style="edgeStyle=none;orthogonalLoop=1;jettySize=auto;html=1;" parent="1" edge="1">
                    <mxGeometry width="80" relative="1" as="geometry">
                        <mxPoint x="60" y="2075.68" as="sourcePoint"/>
                        <mxPoint x="220" y="2075.68" as="targetPoint"/>
                        <Array as="points"/>
                    </mxGeometry>
                </mxCell>
                <mxCell id="410" value="i_en" style="edgeStyle=none;orthogonalLoop=1;jettySize=auto;html=1;" parent="1" edge="1">
                    <mxGeometry width="80" relative="1" as="geometry">
                        <mxPoint x="60" y="2142.999999999999" as="sourcePoint"/>
                        <mxPoint x="220" y="2142.999999999999" as="targetPoint"/>
                        <Array as="points"/>
                    </mxGeometry>
                </mxCell>
                <mxCell id="411" value="i_iot_in" style="edgeStyle=none;orthogonalLoop=1;jettySize=auto;html=1;" parent="1" edge="1">
                    <mxGeometry width="80" relative="1" as="geometry">
                        <mxPoint x="60" y="2160" as="sourcePoint"/>
                        <mxPoint x="220" y="2160" as="targetPoint"/>
                        <Array as="points"/>
                    </mxGeometry>
                </mxCell>
                <mxCell id="412" value="o_ready" style="edgeStyle=none;orthogonalLoop=1;jettySize=auto;html=1;" parent="1" edge="1">
                    <mxGeometry width="80" relative="1" as="geometry">
                        <mxPoint x="220" y="2175.9999999999995" as="sourcePoint"/>
                        <mxPoint x="60" y="2175.9999999999995" as="targetPoint"/>
                        <Array as="points"/>
                    </mxGeometry>
                </mxCell>
                <mxCell id="413" value="o_done" style="edgeStyle=none;orthogonalLoop=1;jettySize=auto;html=1;" parent="1" edge="1">
                    <mxGeometry width="80" relative="1" as="geometry">
                        <mxPoint x="220" y="2193.82" as="sourcePoint"/>
                        <mxPoint x="60" y="2193.82" as="targetPoint"/>
                        <Array as="points"/>
                    </mxGeometry>
                </mxCell>
                <mxCell id="414" value="o_iot_out" style="edgeStyle=none;orthogonalLoop=1;jettySize=auto;html=1;" parent="1" edge="1">
                    <mxGeometry width="80" relative="1" as="geometry">
                        <mxPoint x="220" y="2210" as="sourcePoint"/>
                        <mxPoint x="60" y="2210" as="targetPoint"/>
                        <Array as="points"/>
                    </mxGeometry>
                </mxCell>
                <mxCell id="415" value="i_set_mode" style="edgeStyle=none;orthogonalLoop=1;jettySize=auto;html=1;" parent="1" edge="1">
                    <mxGeometry width="80" relative="1" as="geometry">
                        <mxPoint x="60" y="2092.49" as="sourcePoint"/>
                        <mxPoint x="220" y="2092.49" as="targetPoint"/>
                        <Array as="points"/>
                    </mxGeometry>
                </mxCell>
                <mxCell id="416" value="i_sel_fn" style="edgeStyle=none;orthogonalLoop=1;jettySize=auto;html=1;" parent="1" edge="1">
                    <mxGeometry width="80" relative="1" as="geometry">
                        <mxPoint x="60" y="2108.17" as="sourcePoint"/>
                        <mxPoint x="220" y="2108.17" as="targetPoint"/>
                        <Array as="points"/>
                    </mxGeometry>
                </mxCell>
                <mxCell id="417" value="o_setted" style="edgeStyle=none;orthogonalLoop=1;jettySize=auto;html=1;" parent="1" edge="1">
                    <mxGeometry width="80" relative="1" as="geometry">
                        <mxPoint x="220" y="2125.58" as="sourcePoint"/>
                        <mxPoint x="60" y="2125.58" as="targetPoint"/>
                        <Array as="points"/>
                    </mxGeometry>
                </mxCell>
                <mxCell id="418" value="iot_buf[63:0]" style="text;strokeColor=none;align=center;fillColor=none;html=1;verticalAlign=middle;whiteSpace=wrap;rounded=0;" vertex="1" parent="1">
                    <mxGeometry x="240" y="220" width="60" height="30" as="geometry"/>
                </mxCell>
                <mxCell id="419" value="iot_buf[127:64]" style="text;strokeColor=none;align=center;fillColor=none;html=1;verticalAlign=middle;whiteSpace=wrap;rounded=0;" vertex="1" parent="1">
                    <mxGeometry x="245" y="490" width="60" height="30" as="geometry"/>
                </mxCell>
                <mxCell id="420" value="" style="edgeStyle=none;orthogonalLoop=1;jettySize=auto;html=1;entryX=0.716;entryY=0.883;entryDx=0;entryDy=0;entryPerimeter=0;" edge="1" parent="1" target="4">
                    <mxGeometry width="80" relative="1" as="geometry">
                        <mxPoint x="230" y="610" as="sourcePoint"/>
                        <mxPoint x="310" y="610" as="targetPoint"/>
                        <Array as="points"/>
                    </mxGeometry>
                </mxCell>
                <mxCell id="421" value="divide logic" style="whiteSpace=wrap;html=1;" vertex="1" parent="1">
                    <mxGeometry x="600" y="580" width="110" height="60" as="geometry"/>
                </mxCell>
                <mxCell id="422" value="rst_remain wen_remain" style="text;strokeColor=none;align=center;fillColor=none;html=1;verticalAlign=middle;whiteSpace=wrap;rounded=0;" vertex="1" parent="1">
                    <mxGeometry x="850" y="440" width="60" height="30" as="geometry"/>
                </mxCell>
                <mxCell id="423" value="" style="edgeStyle=none;orthogonalLoop=1;jettySize=auto;html=1;exitX=0;exitY=0.5;exitDx=0;exitDy=0;entryX=1;entryY=0.5;entryDx=0;entryDy=0;" edge="1" parent="1" source="422" target="426">
                    <mxGeometry width="80" relative="1" as="geometry">
                        <mxPoint x="853" y="430" as="sourcePoint"/>
                        <mxPoint x="620.5" y="440" as="targetPoint"/>
                        <Array as="points"/>
                    </mxGeometry>
                </mxCell>
                <mxCell id="424" value="crc2" style="whiteSpace=wrap;html=1;" vertex="1" parent="1">
                    <mxGeometry x="590" y="440" width="50" height="30" as="geometry"/>
                </mxCell>
                <mxCell id="425" value="crc1" style="whiteSpace=wrap;html=1;" vertex="1" parent="1">
                    <mxGeometry x="640" y="440" width="50" height="30" as="geometry"/>
                </mxCell>
                <mxCell id="426" value="crc0" style="whiteSpace=wrap;html=1;" vertex="1" parent="1">
                    <mxGeometry x="690" y="440" width="50" height="30" as="geometry"/>
                </mxCell>
                <mxCell id="427" value="" style="edgeStyle=none;orthogonalLoop=1;jettySize=auto;html=1;exitX=0.59;exitY=-0.021;exitDx=0;exitDy=0;exitPerimeter=0;" edge="1" parent="1" source="421">
                    <mxGeometry width="80" relative="1" as="geometry">
                        <mxPoint x="664" y="570" as="sourcePoint"/>
                        <mxPoint x="664.47" y="470" as="targetPoint"/>
                        <Array as="points"/>
                    </mxGeometry>
                </mxCell>
                <mxCell id="430" style="edgeStyle=none;html=1;exitX=0.5;exitY=0;exitDx=0;exitDy=0;entryX=1;entryY=0.25;entryDx=0;entryDy=0;" edge="1" parent="1" source="428" target="4">
                    <mxGeometry relative="1" as="geometry">
                        <Array as="points">
                            <mxPoint x="665" y="230"/>
                        </Array>
                    </mxGeometry>
                </mxCell>
                <mxCell id="428" value="divide with 000" style="whiteSpace=wrap;html=1;" vertex="1" parent="1">
                    <mxGeometry x="605" y="330" width="120" height="60" as="geometry"/>
                </mxCell>
                <mxCell id="429" value="" style="edgeStyle=none;orthogonalLoop=1;jettySize=auto;html=1;" edge="1" parent="1">
                    <mxGeometry width="80" relative="1" as="geometry">
                        <mxPoint x="664" y="440" as="sourcePoint"/>
                        <mxPoint x="664.47" y="390" as="targetPoint"/>
                        <Array as="points"/>
                    </mxGeometry>
                </mxCell>
                <mxCell id="431" value="crc_check[127:0]" style="text;strokeColor=none;align=center;fillColor=none;html=1;verticalAlign=middle;whiteSpace=wrap;rounded=0;" vertex="1" parent="1">
                    <mxGeometry x="695" y="204" width="60" height="30" as="geometry"/>
                </mxCell>
            </root>
        </mxGraphModel>
    </diagram>
</mxfile>